<svg width="22" height="10" viewBox="0 0 22 10" fill="none" xmlns="http://www.w3.org/2000/svg">
<path fill-rule="evenodd" clip-rule="evenodd" d="M16.159 3.82159C16.3954 3.03501 16.8605 2.37203 17.4722 1.94985C18.0839 1.52766 18.8028 1.37346 19.5018 1.51448C20.2008 1.65551 20.835 2.08269 21.2921 2.72052C21.7493 3.35834 22 4.16574 22 5C22 5.83426 21.7493 6.64166 21.2921 7.27949C20.835 7.91731 20.2008 8.34449 19.5018 8.48552C18.8028 8.62655 18.0839 8.47234 17.4722 8.05015C16.8605 7.62797 16.3954 6.96499 16.159 6.17841L3.84992 6.19255L5.67519 8.32783L4.26266 10L0 5.01414L4.23761 0L5.66017 1.66156L3.82186 3.83573L16.159 3.82159ZM17.9923 4.99764C17.9923 4.68511 18.0979 4.38538 18.2857 4.16438C18.4736 3.94339 18.7284 3.81923 18.9941 3.81923C19.2598 3.81923 19.5146 3.94339 19.7025 4.16438C19.8904 4.38538 19.9959 4.68511 19.9959 4.99764C19.9959 5.31018 19.8904 5.60991 19.7025 5.83091C19.5146 6.0519 19.2598 6.17606 18.9941 6.17606C18.7284 6.17606 18.4736 6.0519 18.2857 5.83091C18.0979 5.60991 17.9923 5.31018 17.9923 4.99764Z" fill="#006090"/>
</svg>
