<svg width="60" height="60" viewBox="0 0 60 60" fill="none" xmlns="http://www.w3.org/2000/svg">
<path d="M30 0.000244141C13.4313 0.000244141 0 13.4315 0 30.0002C0 46.569 13.4313 60.0002 30 60.0002C46.5687 60.0002 60 46.569 60 30.0002C60 13.4315 46.5687 0.000244141 30 0.000244141ZM22.6562 42.4346H16.5812V22.8846H22.6562V42.4346ZM19.5812 20.4846C17.6625 20.4846 16.4219 19.1252 16.4219 17.444C16.4219 15.7284 17.7 14.4096 19.6594 14.4096C21.6187 14.4096 22.8187 15.7284 22.8562 17.444C22.8562 19.1252 21.6187 20.4846 19.5812 20.4846ZM44.8437 42.4346H38.7687V31.6002C38.7687 29.0784 37.8875 27.3659 35.6906 27.3659C34.0125 27.3659 33.0156 28.5252 32.575 29.6409C32.4125 30.0377 32.3719 30.6002 32.3719 31.1596V42.4315H26.2937V29.119C26.2937 26.6784 26.2156 24.6377 26.1344 22.8815H31.4125L31.6906 25.5971H31.8125C32.6125 24.3221 34.5719 22.4409 37.85 22.4409C41.8469 22.4409 44.8437 25.119 44.8437 30.8752V42.4346V42.4346Z" fill="#F6F2EC"/>
</svg>
